<svg xmlns="http://www.w3.org/2000/svg" width="2224" height="1668" viewBox="0 0 2224 1668" version="1.1"><path d="M 1085.500 362.576 C 1053.936 364.895, 1036.824 367.070, 1014.500 371.600 C 877.485 399.409, 759.060 491.434, 698.056 617.500 C 654.484 707.541, 641.745 807.857, 661.481 905.500 C 666.770 931.665, 674.473 958.500, 676.694 958.500 C 677.654 958.500, 741.817 883.945, 802.003 812.896 L 812.680 800.292 813.340 790.227 C 814.143 777.971, 817.959 754.972, 821.524 740.901 C 845.292 647.085, 912.422 570.823, 1003.097 534.629 C 1014.043 530.260, 1018 529.195, 1018 530.618 C 1018 530.957, 1015.562 534.475, 1012.581 538.435 C 1002.534 551.785, 994.884 564.415, 986.495 581.500 C 978.414 597.959, 969 622.706, 969 627.492 C 969 629.278, 972.277 632.563, 982.828 641.357 C 990.434 647.695, 997.186 653.519, 997.833 654.299 C 999.281 656.043, 999.383 655.905, 979.514 679 C 956.007 706.323, 958.660 701.766, 959.455 713.462 C 960.841 733.833, 964.095 753.166, 968.691 768.338 L 971.369 777.176 988.685 791.697 C 998.208 799.684, 1005.991 806.732, 1005.981 807.359 C 1005.971 807.987, 1002.840 812.234, 999.024 816.797 C 992.995 824.007, 992.204 825.406, 992.989 827.471 C 995.877 835.067, 1014.869 862.287, 1024.946 873.272 C 1029.127 877.830, 1030.528 878.807, 1031.604 877.914 C 1032.353 877.292, 1071.077 831.832, 1117.657 776.892 C 1184.857 697.630, 1202.825 677, 1204.658 677 C 1206.790 677, 1221.567 688.613, 1235.337 701.110 L 1240.174 705.500 1159.837 800.046 C 1066.682 909.678, 1066.596 909.780, 1066.196 910.940 C 1065.187 913.872, 1112.714 941.917, 1123.033 944.479 C 1125.300 945.042, 1126.543 943.947, 1134.865 934.054 C 1139.979 927.974, 1144.522 923, 1144.961 923 C 1147.022 923, 1180 950.790, 1180 952.526 C 1180 953.188, 1179.100 954.874, 1178 956.273 C 1176.900 957.671, 1176 959.261, 1176 959.805 C 1176 960.851, 1183.911 962.439, 1198 964.222 C 1207.925 965.478, 1248.887 965.523, 1254 964.283 C 1256.984 963.560, 1260.814 959.508, 1280 936.775 C 1292.375 922.112, 1302.799 909.827, 1303.164 909.476 C 1303.530 909.125, 1304.880 909.398, 1306.164 910.082 C 1308.804 911.488, 1336.475 934.633, 1339.406 937.887 L 1341.313 940.003 1352.682 934.032 C 1366.009 927.032, 1380.327 917.756, 1391.992 908.566 C 1400.287 902.031, 1402 901.081, 1402 903.016 C 1402 905.114, 1392.610 929.831, 1388.149 939.474 C 1371.535 975.390, 1354.956 999.094, 1326.535 1027.568 C 1307.652 1046.486, 1292.750 1058.525, 1272.836 1070.948 C 1258.005 1080.200, 1233.728 1092.058, 1217.500 1097.976 C 1209.800 1100.784, 1202.566 1103.468, 1201.425 1103.940 C 1198.500 1105.149, 1064.724 1264.839, 1065.325 1266.404 C 1066.004 1268.175, 1079.303 1269.002, 1106.904 1268.990 C 1131.493 1268.978, 1145.520 1268.054, 1168.294 1264.946 C 1296.125 1247.496, 1410.972 1175.688, 1482.485 1068.500 C 1496.533 1047.443, 1504.037 1034.355, 1514.587 1012.507 C 1555.981 926.784, 1569.106 831.232, 1552.501 736.500 C 1549.352 718.536, 1544.773 699.758, 1543.432 699.311 C 1542.857 699.119, 1528.892 714.833, 1512.398 734.231 C 1495.903 753.629, 1457.136 799.256, 1426.249 835.626 C 1395.362 871.995, 1369.339 902.040, 1368.419 902.393 C 1366.453 903.147, 1367.676 904.048, 1347.750 887.169 C 1339.088 879.831, 1332 873.406, 1332 872.891 C 1332 872.376, 1333.723 870.053, 1335.829 867.728 C 1340.151 862.955, 1432.713 753.906, 1488.384 688 C 1522.161 648.013, 1525.083 644.263, 1524.552 641.564 C 1523.778 637.621, 1505.892 601.126, 1498.034 587.454 C 1474.108 545.827, 1437.641 502.075, 1400.500 470.435 C 1357.607 433.896, 1305.752 404.436, 1252.800 386.524 C 1243.940 383.526, 1236.137 381.395, 1235.461 381.787 C 1234.785 382.179, 1230.261 387.225, 1225.406 393 C 1217.710 402.156, 1185.780 439.614, 1060.284 586.705 C 1044.703 604.968, 1031.539 620.167, 1031.033 620.480 C 1030.084 621.066, 995 592.279, 995 590.915 C 995 589.876, 992.773 592.502, 1063.500 510.134 C 1152.950 405.960, 1159.188 398.667, 1171.855 383.450 C 1178.169 375.865, 1182.829 369.429, 1182.352 368.952 C 1181.432 368.032, 1154.748 364.304, 1144 363.593 C 1133.714 362.913, 1091.016 362.171, 1085.500 362.576 M 1223 480.673 C 1204.025 503.043, 1179.841 531.506, 1169.257 543.923 C 1155.181 560.437, 1150.012 567.188, 1150.007 569.063 C 1150.001 571.148, 1153.026 574.187, 1166.217 585.345 C 1175.136 592.890, 1183.119 598.931, 1183.958 598.770 C 1185.775 598.420, 1294 471.434, 1294 469.652 C 1294 468.976, 1288.938 463.930, 1282.750 458.439 C 1265.523 443.152, 1261.537 440, 1259.436 440 C 1258.119 440.001, 1246.469 453.006, 1223 480.673 M 1322.701 532.079 C 1312.911 543.637, 1304.686 553.656, 1304.422 554.343 C 1303.943 555.591, 1336.872 584.216, 1339.466 584.805 C 1340.651 585.074, 1374.796 546.071, 1377.078 541.841 C 1377.804 540.495, 1374.734 537.430, 1360.801 525.591 C 1351.356 517.566, 1342.925 511.014, 1342.064 511.032 C 1341.204 511.049, 1332.490 520.520, 1322.701 532.079 M 1421.750 590.250 C 1418.769 593.688, 1400.772 615.175, 1381.756 638 C 1362.740 660.825, 1341.031 686.803, 1333.513 695.728 C 1325.996 704.654, 1319.992 712.569, 1320.172 713.318 C 1320.645 715.284, 1352.201 741.981, 1354.063 741.991 C 1354.923 741.996, 1365.692 729.962, 1377.993 715.250 C 1390.295 700.538, 1414.341 671.939, 1431.430 651.698 C 1448.518 631.457, 1462.632 614.316, 1462.793 613.606 C 1463.117 612.179, 1430.394 584, 1428.412 584 C 1427.729 584, 1424.730 586.813, 1421.750 590.250 M 1273.301 593.250 C 1268.019 598.802, 1234 639.368, 1234 640.114 C 1234 640.923, 1244.028 649.893, 1258.344 661.891 C 1268.007 669.989, 1268.225 670.107, 1270.222 668.320 C 1275.183 663.883, 1310.999 620.728, 1310.988 619.200 C 1310.982 618.265, 1307.986 615.025, 1304.332 612 C 1300.677 608.975, 1293.443 602.788, 1288.256 598.250 C 1283.069 593.712, 1278.278 590, 1277.609 590 C 1276.940 590, 1275.001 591.462, 1273.301 593.250 M 1059.416 672.070 C 1027.562 709.508, 1001.405 740.896, 1001.289 741.820 C 1001.154 742.896, 1007.156 748.625, 1017.993 757.764 C 1027.296 765.609, 1035.522 772.263, 1036.273 772.551 C 1037.158 772.891, 1058.227 748.882, 1096.069 704.414 C 1128.206 666.650, 1154.605 635.470, 1154.734 635.126 C 1154.862 634.782, 1154.637 634.028, 1154.234 633.451 C 1152.472 630.931, 1120.019 604, 1118.745 604 C 1117.968 604, 1091.270 634.631, 1059.416 672.070 M 1286.859 752.750 C 1284.909 754.813, 1271.677 770.450, 1257.455 787.500 C 1232.267 817.698, 1178.706 881.271, 1174.704 885.721 C 1172.314 888.378, 1172.803 889.184, 1180.600 895.421 C 1183.404 897.664, 1190.269 903.486, 1195.853 908.357 C 1204.422 915.832, 1206.397 917.117, 1208.501 916.589 C 1210.212 916.160, 1220.990 903.963, 1242.839 877.732 C 1260.354 856.704, 1286.231 825.805, 1300.342 809.066 C 1314.454 792.328, 1326 778.279, 1326 777.846 C 1326 777.414, 1321.162 772.952, 1315.250 767.931 C 1309.338 762.910, 1301.943 756.597, 1298.817 753.901 C 1295.691 751.205, 1292.520 749, 1291.770 749 C 1291.020 749, 1288.810 750.688, 1286.859 752.750 M 756.500 939.014 C 724.050 976.930, 697.359 1008.842, 697.187 1009.928 C 696.494 1014.300, 724.219 1063.500, 727.375 1063.500 C 728.785 1063.500, 835.323 939.519, 836.667 936.315 C 836.940 935.663, 835.603 931.163, 833.696 926.315 C 828.454 912.992, 823.121 895.869, 820.066 882.554 C 818.558 875.984, 816.914 870.488, 816.412 870.342 C 815.911 870.195, 788.950 901.097, 756.500 939.014 M 855 997.249 C 850.325 1002.820, 833 1023.193, 816.500 1042.522 C 768.460 1098.798, 761 1107.759, 761 1109.193 C 761 1110.995, 784.783 1136.858, 793.669 1144.720 C 799.501 1149.879, 800.956 1150.732, 802.199 1149.720 C 803.024 1149.049, 809.954 1141.062, 817.599 1131.971 C 825.245 1122.880, 847.250 1096.870, 866.500 1074.170 C 885.750 1051.470, 901.645 1032.247, 901.823 1031.452 C 902 1030.656, 898.304 1025.842, 893.610 1020.753 C 884.568 1010.951, 870.968 994.349, 868.215 989.750 C 867.310 988.237, 865.878 987.027, 865.034 987.060 C 864.190 987.093, 859.675 991.678, 855 997.249 M 888.588 1120.542 C 861.262 1152.741, 838.672 1179.692, 838.386 1180.435 C 837.518 1182.698, 870.512 1204.397, 891.500 1215.366 L 898.500 1219.024 902.500 1214.743 C 904.700 1212.388, 908.585 1207.770, 911.134 1204.481 C 913.683 1201.191, 934.954 1175.575, 958.403 1147.556 C 981.852 1119.538, 1000.890 1096.170, 1000.709 1095.628 C 1000.304 1094.411, 1000.314 1094.416, 984.844 1087.162 C 971.981 1081.130, 957.104 1072.792, 946.805 1065.843 C 943.673 1063.729, 940.471 1062, 939.690 1062 C 938.909 1062, 915.913 1088.344, 888.588 1120.542 M 1050.714 1112.214 C 1048.214 1114.516, 1033.919 1131.296, 978.057 1197.500 C 961.349 1217.300, 946.740 1234.549, 945.590 1235.831 C 943.583 1238.068, 943.572 1238.214, 945.320 1239.492 C 950.147 1243.022, 1006.451 1259.532, 1009.574 1258.333 C 1011.110 1257.744, 1127.383 1119.251, 1127.797 1117.518 C 1128.024 1116.566, 1122.744 1116.141, 1105.297 1115.711 C 1084.986 1115.209, 1062.492 1112.863, 1054.848 1110.449 C 1053.926 1110.158, 1052.099 1110.938, 1050.714 1112.214" stroke="none" fill="#2e06ac" fill-rule="evenodd"/><path d="M 0 834 L 0 1668.001 1112.250 1667.750 L 2224.500 1667.500 2224.751 833.750 L 2225.001 0 1112.501 0 L 0 0 0 834 M 0.498 834.500 C 0.498 1293.200, 0.611 1481, 0.750 1251.832 C 0.889 1022.665, 0.889 647.365, 0.750 417.832 C 0.611 188.300, 0.498 375.800, 0.498 834.500 M 1085.500 362.576 C 1053.936 364.895, 1036.824 367.070, 1014.500 371.600 C 877.485 399.409, 759.060 491.434, 698.056 617.500 C 654.484 707.541, 641.745 807.857, 661.481 905.500 C 666.770 931.665, 674.473 958.500, 676.694 958.500 C 677.654 958.500, 741.817 883.945, 802.003 812.896 L 812.680 800.292 813.340 790.227 C 814.143 777.971, 817.959 754.972, 821.524 740.901 C 845.292 647.085, 912.422 570.823, 1003.097 534.629 C 1014.043 530.260, 1018 529.195, 1018 530.618 C 1018 530.957, 1015.562 534.475, 1012.581 538.435 C 1002.534 551.785, 994.884 564.415, 986.495 581.500 C 978.414 597.959, 969 622.706, 969 627.492 C 969 629.278, 972.277 632.563, 982.828 641.357 C 990.434 647.695, 997.186 653.519, 997.833 654.299 C 999.281 656.043, 999.383 655.905, 979.514 679 C 956.007 706.323, 958.660 701.766, 959.455 713.462 C 960.841 733.833, 964.095 753.166, 968.691 768.338 L 971.369 777.176 988.685 791.697 C 998.208 799.684, 1005.991 806.732, 1005.981 807.359 C 1005.971 807.987, 1002.840 812.234, 999.024 816.797 C 992.995 824.007, 992.204 825.406, 992.989 827.471 C 995.877 835.067, 1014.869 862.287, 1024.946 873.272 C 1029.127 877.830, 1030.528 878.807, 1031.604 877.914 C 1032.353 877.292, 1071.077 831.832, 1117.657 776.892 C 1184.857 697.630, 1202.825 677, 1204.658 677 C 1206.790 677, 1221.567 688.613, 1235.337 701.110 L 1240.174 705.500 1159.837 800.046 C 1066.682 909.678, 1066.596 909.780, 1066.196 910.940 C 1065.187 913.872, 1112.714 941.917, 1123.033 944.479 C 1125.300 945.042, 1126.543 943.947, 1134.865 934.054 C 1139.979 927.974, 1144.522 923, 1144.961 923 C 1147.022 923, 1180 950.790, 1180 952.526 C 1180 953.188, 1179.100 954.874, 1178 956.273 C 1176.900 957.671, 1176 959.261, 1176 959.805 C 1176 960.851, 1183.911 962.439, 1198 964.222 C 1207.925 965.478, 1248.887 965.523, 1254 964.283 C 1256.984 963.560, 1260.814 959.508, 1280 936.775 C 1292.375 922.112, 1302.799 909.827, 1303.164 909.476 C 1303.530 909.125, 1304.880 909.398, 1306.164 910.082 C 1308.804 911.488, 1336.475 934.633, 1339.406 937.887 L 1341.313 940.003 1352.682 934.032 C 1366.009 927.032, 1380.327 917.756, 1391.992 908.566 C 1400.287 902.031, 1402 901.081, 1402 903.016 C 1402 905.114, 1392.610 929.831, 1388.149 939.474 C 1371.535 975.390, 1354.956 999.094, 1326.535 1027.568 C 1307.652 1046.486, 1292.750 1058.525, 1272.836 1070.948 C 1258.005 1080.200, 1233.728 1092.058, 1217.500 1097.976 C 1209.800 1100.784, 1202.566 1103.468, 1201.425 1103.940 C 1198.500 1105.149, 1064.724 1264.839, 1065.325 1266.404 C 1066.004 1268.175, 1079.303 1269.002, 1106.904 1268.990 C 1131.493 1268.978, 1145.520 1268.054, 1168.294 1264.946 C 1296.125 1247.496, 1410.972 1175.688, 1482.485 1068.500 C 1496.533 1047.443, 1504.037 1034.355, 1514.587 1012.507 C 1555.981 926.784, 1569.106 831.232, 1552.501 736.500 C 1549.352 718.536, 1544.773 699.758, 1543.432 699.311 C 1542.857 699.119, 1528.892 714.833, 1512.398 734.231 C 1495.903 753.629, 1457.136 799.256, 1426.249 835.626 C 1395.362 871.995, 1369.339 902.040, 1368.419 902.393 C 1366.453 903.147, 1367.676 904.048, 1347.750 887.169 C 1339.088 879.831, 1332 873.406, 1332 872.891 C 1332 872.376, 1333.723 870.053, 1335.829 867.728 C 1340.151 862.955, 1432.713 753.906, 1488.384 688 C 1522.161 648.013, 1525.083 644.263, 1524.552 641.564 C 1523.778 637.621, 1505.892 601.126, 1498.034 587.454 C 1474.108 545.827, 1437.641 502.075, 1400.500 470.435 C 1357.607 433.896, 1305.752 404.436, 1252.800 386.524 C 1243.940 383.526, 1236.137 381.395, 1235.461 381.787 C 1234.785 382.179, 1230.261 387.225, 1225.406 393 C 1217.710 402.156, 1185.780 439.614, 1060.284 586.705 C 1044.703 604.968, 1031.539 620.167, 1031.033 620.480 C 1030.084 621.066, 995 592.279, 995 590.915 C 995 589.876, 992.773 592.502, 1063.500 510.134 C 1152.950 405.960, 1159.188 398.667, 1171.855 383.450 C 1178.169 375.865, 1182.829 369.429, 1182.352 368.952 C 1181.432 368.032, 1154.748 364.304, 1144 363.593 C 1133.714 362.913, 1091.016 362.171, 1085.500 362.576 M 1223 480.673 C 1204.025 503.043, 1179.841 531.506, 1169.257 543.923 C 1155.181 560.437, 1150.012 567.188, 1150.007 569.063 C 1150.001 571.148, 1153.026 574.187, 1166.217 585.345 C 1175.136 592.890, 1183.119 598.931, 1183.958 598.770 C 1185.775 598.420, 1294 471.434, 1294 469.652 C 1294 468.976, 1288.938 463.930, 1282.750 458.439 C 1265.523 443.152, 1261.537 440, 1259.436 440 C 1258.119 440.001, 1246.469 453.006, 1223 480.673 M 1322.701 532.079 C 1312.911 543.637, 1304.686 553.656, 1304.422 554.343 C 1303.943 555.591, 1336.872 584.216, 1339.466 584.805 C 1340.651 585.074, 1374.796 546.071, 1377.078 541.841 C 1377.804 540.495, 1374.734 537.430, 1360.801 525.591 C 1351.356 517.566, 1342.925 511.014, 1342.064 511.032 C 1341.204 511.049, 1332.490 520.520, 1322.701 532.079 M 1421.750 590.250 C 1418.769 593.688, 1400.772 615.175, 1381.756 638 C 1362.740 660.825, 1341.031 686.803, 1333.513 695.728 C 1325.996 704.654, 1319.992 712.569, 1320.172 713.318 C 1320.645 715.284, 1352.201 741.981, 1354.063 741.991 C 1354.923 741.996, 1365.692 729.962, 1377.993 715.250 C 1390.295 700.538, 1414.341 671.939, 1431.430 651.698 C 1448.518 631.457, 1462.632 614.316, 1462.793 613.606 C 1463.117 612.179, 1430.394 584, 1428.412 584 C 1427.729 584, 1424.730 586.813, 1421.750 590.250 M 1273.301 593.250 C 1268.019 598.802, 1234 639.368, 1234 640.114 C 1234 640.923, 1244.028 649.893, 1258.344 661.891 C 1268.007 669.989, 1268.225 670.107, 1270.222 668.320 C 1275.183 663.883, 1310.999 620.728, 1310.988 619.200 C 1310.982 618.265, 1307.986 615.025, 1304.332 612 C 1300.677 608.975, 1293.443 602.788, 1288.256 598.250 C 1283.069 593.712, 1278.278 590, 1277.609 590 C 1276.940 590, 1275.001 591.462, 1273.301 593.250 M 1059.416 672.070 C 1027.562 709.508, 1001.405 740.896, 1001.289 741.820 C 1001.154 742.896, 1007.156 748.625, 1017.993 757.764 C 1027.296 765.609, 1035.522 772.263, 1036.273 772.551 C 1037.158 772.891, 1058.227 748.882, 1096.069 704.414 C 1128.206 666.650, 1154.605 635.470, 1154.734 635.126 C 1154.862 634.782, 1154.637 634.028, 1154.234 633.451 C 1152.472 630.931, 1120.019 604, 1118.745 604 C 1117.968 604, 1091.270 634.631, 1059.416 672.070 M 1286.859 752.750 C 1284.909 754.813, 1271.677 770.450, 1257.455 787.500 C 1232.267 817.698, 1178.706 881.271, 1174.704 885.721 C 1172.314 888.378, 1172.803 889.184, 1180.600 895.421 C 1183.404 897.664, 1190.269 903.486, 1195.853 908.357 C 1204.422 915.832, 1206.397 917.117, 1208.501 916.589 C 1210.212 916.160, 1220.990 903.963, 1242.839 877.732 C 1260.354 856.704, 1286.231 825.805, 1300.342 809.066 C 1314.454 792.328, 1326 778.279, 1326 777.846 C 1326 777.414, 1321.162 772.952, 1315.250 767.931 C 1309.338 762.910, 1301.943 756.597, 1298.817 753.901 C 1295.691 751.205, 1292.520 749, 1291.770 749 C 1291.020 749, 1288.810 750.688, 1286.859 752.750 M 756.500 939.014 C 724.050 976.930, 697.359 1008.842, 697.187 1009.928 C 696.494 1014.300, 724.219 1063.500, 727.375 1063.500 C 728.785 1063.500, 835.323 939.519, 836.667 936.315 C 836.940 935.663, 835.603 931.163, 833.696 926.315 C 828.454 912.992, 823.121 895.869, 820.066 882.554 C 818.558 875.984, 816.914 870.488, 816.412 870.342 C 815.911 870.195, 788.950 901.097, 756.500 939.014 M 855 997.249 C 850.325 1002.820, 833 1023.193, 816.500 1042.522 C 768.460 1098.798, 761 1107.759, 761 1109.193 C 761 1110.995, 784.783 1136.858, 793.669 1144.720 C 799.501 1149.879, 800.956 1150.732, 802.199 1149.720 C 803.024 1149.049, 809.954 1141.062, 817.599 1131.971 C 825.245 1122.880, 847.250 1096.870, 866.500 1074.170 C 885.750 1051.470, 901.645 1032.247, 901.823 1031.452 C 902 1030.656, 898.304 1025.842, 893.610 1020.753 C 884.568 1010.951, 870.968 994.349, 868.215 989.750 C 867.310 988.237, 865.878 987.027, 865.034 987.060 C 864.190 987.093, 859.675 991.678, 855 997.249 M 888.588 1120.542 C 861.262 1152.741, 838.672 1179.692, 838.386 1180.435 C 837.518 1182.698, 870.512 1204.397, 891.500 1215.366 L 898.500 1219.024 902.500 1214.743 C 904.700 1212.388, 908.585 1207.770, 911.134 1204.481 C 913.683 1201.191, 934.954 1175.575, 958.403 1147.556 C 981.852 1119.538, 1000.890 1096.170, 1000.709 1095.628 C 1000.304 1094.411, 1000.314 1094.416, 984.844 1087.162 C 971.981 1081.130, 957.104 1072.792, 946.805 1065.843 C 943.673 1063.729, 940.471 1062, 939.690 1062 C 938.909 1062, 915.913 1088.344, 888.588 1120.542 M 1050.714 1112.214 C 1048.214 1114.516, 1033.919 1131.296, 978.057 1197.500 C 961.349 1217.300, 946.740 1234.549, 945.590 1235.831 C 943.583 1238.068, 943.572 1238.214, 945.320 1239.492 C 950.147 1243.022, 1006.451 1259.532, 1009.574 1258.333 C 1011.110 1257.744, 1127.383 1119.251, 1127.797 1117.518 C 1128.024 1116.566, 1122.744 1116.141, 1105.297 1115.711 C 1084.986 1115.209, 1062.492 1112.863, 1054.848 1110.449 C 1053.926 1110.158, 1052.099 1110.938, 1050.714 1112.214" stroke="none" fill="#fbfbfb" fill-rule="evenodd"/></svg>